<svg xmlns="http://www.w3.org/2000/svg" viewBox="0 0 128 104.16"><defs><style>.cls-1,.cls-2,.cls-3{fill:none;stroke:#000105;}.cls-1,.cls-2{stroke-miterlimit:10;}.cls-1{stroke-width:6.12px;}.cls-2{stroke-width:5.39px;}.cls-3{stroke-linecap:round;stroke-linejoin:round;stroke-width:4.84px;}</style></defs><title>128</title><g id="Слой_2" data-name="Слой 2"><g id="Слой_1-2" data-name="Слой 1"><path class="cls-1" d="M63.12,55.48,4.76,34.86a2.49,2.49,0,0,1-.22-4.64L62.9,3.3a2.64,2.64,0,0,1,2.2,0l58.36,26.92a2.49,2.49,0,0,1-.22,4.64L64.87,55.48A2.63,2.63,0,0,1,63.12,55.48Z"/><path class="cls-2" d="M64.87,55.66a2.63,2.63,0,0,1-1.75,0L23.25,41.57V82.35a8.23,8.23,0,0,0,5.67,7.77L61.26,101a8.54,8.54,0,0,0,5.47,0l32.35-10.9a8.23,8.23,0,0,0,5.67-7.77V41.57Z"/><line class="cls-3" x1="125.56" y1="33.13" x2="125.58" y2="55.93"/></g></g></svg>