<svg xmlns="http://www.w3.org/2000/svg" viewBox="0 0 32 26.04"><defs><style>.cls-1,.cls-2,.cls-3{fill:none;stroke:#000105;}.cls-1,.cls-2{stroke-miterlimit:10;}.cls-1{stroke-width:1.53px;}.cls-2{stroke-width:1.35px;}.cls-3{stroke-linecap:round;stroke-linejoin:round;stroke-width:1.21px;}</style></defs><title>32</title><g id="Слой_2" data-name="Слой 2"><g id="Слой_1-2" data-name="Слой 1"><path class="cls-1" d="M15.78,13.87,1.19,8.72a.63.63,0,0,1-.06-1.17L15.73.82a.64.64,0,0,1,.54,0L30.86,7.55a.63.63,0,0,1-.05,1.17L16.22,13.87A.66.66,0,0,1,15.78,13.87Z"/><path class="cls-2" d="M16.22,13.91a.66.66,0,0,1-.44,0l-10-3.52v10.2a2.07,2.07,0,0,0,1.42,1.94l8.09,2.72a2.11,2.11,0,0,0,1.36,0l8.09-2.72a2.07,2.07,0,0,0,1.42-1.94V10.39Z"/><line class="cls-3" x1="31.39" y1="8.28" x2="31.4" y2="13.98"/></g></g></svg>