<svg xmlns="http://www.w3.org/2000/svg" viewBox="0 0 64 52.08"><defs><style>.cls-1,.cls-2,.cls-3{fill:none;stroke:#000105;}.cls-1,.cls-2{stroke-miterlimit:10;}.cls-1{stroke-width:3.06px;}.cls-2{stroke-width:2.7px;}.cls-3{stroke-linecap:round;stroke-linejoin:round;stroke-width:2.42px;}</style></defs><title>64</title><g id="Слой_2" data-name="Слой 2"><g id="Слой_1-2" data-name="Слой 1"><path class="cls-1" d="M31.56,27.74,2.38,17.43a1.25,1.25,0,0,1-.11-2.32L31.45,1.65a1.32,1.32,0,0,1,1.1,0L61.73,15.11a1.25,1.25,0,0,1-.11,2.32L32.44,27.74A1.33,1.33,0,0,1,31.56,27.74Z"/><path class="cls-2" d="M32.44,27.83a1.33,1.33,0,0,1-.88,0l-19.94-7V41.17a4.12,4.12,0,0,0,2.84,3.89l16.17,5.45a4.28,4.28,0,0,0,2.74,0l16.17-5.45a4.12,4.12,0,0,0,2.83-3.89V20.79Z"/><line class="cls-3" x1="62.78" y1="16.57" x2="62.79" y2="27.96"/></g></g></svg>