<svg xmlns="http://www.w3.org/2000/svg" viewBox="0 0 256 208.32"><defs><style>.cls-1,.cls-2,.cls-3{fill:none;stroke:#000105;}.cls-1,.cls-2{stroke-miterlimit:10;}.cls-1{stroke-width:12.24px;}.cls-2{stroke-width:10.79px;}.cls-3{stroke-linecap:round;stroke-linejoin:round;stroke-width:9.67px;}</style></defs><title>256</title><g id="Слой_2" data-name="Слой 2"><g id="Слой_1-2" data-name="Слой 1"><path class="cls-1" d="M126.25,111,9.52,69.73a5,5,0,0,1-.45-9.29L125.8,6.6a5.26,5.26,0,0,1,4.39,0L246.92,60.44a5,5,0,0,1-.45,9.29L129.74,111A5.23,5.23,0,0,1,126.25,111Z"/><path class="cls-2" d="M129.74,111.31a5.23,5.23,0,0,1-3.49,0L46.5,83.14v81.55a16.47,16.47,0,0,0,11.33,15.55L122.52,202a17.24,17.24,0,0,0,11,0l64.69-21.8a16.47,16.47,0,0,0,11.33-15.55V83.14Z"/><line class="cls-3" x1="251.11" y1="66.26" x2="251.16" y2="111.85"/></g></g></svg>